<svg width="52" height="52" viewBox="0 0 52 52" fill="none" xmlns="http://www.w3.org/2000/svg">
<path d="M41.7857 18.1071C41.7857 14.772 39.085 12.0714 35.75 12.0714C32.415 12.0714 29.7143 14.772 29.7143 18.1071C29.7143 21.4421 32.415 24.1428 35.75 24.1428C39.085 24.1428 41.7857 21.4421 41.7857 18.1071ZM44.5714 18.1071C44.5714 22.9806 40.6235 26.9285 35.75 26.9285C30.8765 26.9285 26.9286 22.9806 26.9286 18.1071C26.9286 13.2335 30.8765 9.28564 35.75 9.28564C40.6235 9.28564 44.5714 13.2335 44.5714 18.1071ZM23.6786 38.1377C23.6786 39.9317 23.6757 39.9285 24.7437 39.9285H47.6849C48.7529 39.9285 48.75 39.9317 48.75 38.1377C48.75 33.9535 43.0282 31.5714 36.2143 31.5714C29.4004 31.5714 23.6786 33.9535 23.6786 38.1377ZM36.2143 28.7856C44.4214 28.7856 51.5357 31.7475 51.5357 38.1377C51.5357 41.4177 50.3493 42.7142 47.6849 42.7142H24.7437C22.0792 42.7142 20.8929 41.4177 20.8929 38.1377C20.8929 31.7475 28.0072 28.7856 36.2143 28.7856ZM10.6786 12.9999C11.4478 12.9999 12.0714 13.6235 12.0714 14.3928V22.2856H19.9643C20.7335 22.2856 21.3571 22.9092 21.3571 23.6785C21.3571 24.4478 20.7335 25.0714 19.9643 25.0714H12.0714V32.9642C12.0714 33.7335 11.4478 34.3571 10.6786 34.3571C9.90932 34.3571 9.28571 33.7335 9.28571 32.9642V25.0714H1.39286C0.623603 25.0714 0 24.4478 0 23.6785C0 22.9092 0.623603 22.2856 1.39286 22.2856H9.28571V14.3928C9.28571 13.6235 9.90932 12.9999 10.6786 12.9999Z" fill="#3F8AE0"/>
</svg>
