<svg width="2" height="42" viewBox="0 0 2 42" fill="none" xmlns="http://www.w3.org/2000/svg">
<g clip-path="url(#clip0_87_499)">
<path d="M1.63718 14.4H0.285386C0.260603 14.4 0.240326 14.8388 0.240326 15.375V18.525C0.240326 19.0613 0.260603 19.5 0.285386 19.5H0.81709V28.7625V38.025C0.81709 38.5613 0.837367 39.0001 0.86215 39.0001H1.06642C1.0912 39.0001 1.11148 38.5613 1.11148 38.025V28.7625V19.5H1.63718C1.66196 19.5 1.68224 19.0613 1.68224 18.525V15.375C1.68224 14.8388 1.66196 14.4 1.63718 14.4ZM1.63718 8H0.961281H0.285386C0.260603 8 0.240326 8.43875 0.240326 8.975V11.825C0.240326 12.3613 0.260603 12.8 0.285386 12.8H0.961281H1.63718C1.66196 12.8 1.68224 12.3613 1.68224 11.825V8.975C1.68224 8.43875 1.66196 8 1.63718 8Z" fill="white"/>
</g>
<defs>
<clipPath id="clip0_87_499">
<rect width="1.44191" height="41.6" fill="white" transform="translate(0.240326)"/>
</clipPath>
</defs>
</svg>
