<svg width="4" height="43" viewBox="0 0 4 43" fill="none" xmlns="http://www.w3.org/2000/svg">
<g clip-path="url(#clip0_89_1187)">
<path d="M3.38774 15.375H1.00331C0.959595 15.375 0.923828 15.8206 0.923828 16.3652V19.5645C0.923828 20.1091 0.959595 20.5547 1.00331 20.5547H1.94119V29.962V39.3692C1.94119 39.9138 1.97695 40.3594 2.02067 40.3594H2.38098C2.4247 40.3594 2.46046 39.9138 2.46046 39.3692V29.962V20.5547H3.38774C3.43146 20.5547 3.46722 20.1091 3.46722 19.5645V16.3652C3.46722 15.8206 3.43146 15.375 3.38774 15.375ZM3.38774 8.875H2.19553H1.00331C0.959595 8.875 0.923828 9.32061 0.923828 9.86523V12.7598C0.923828 13.3044 0.959595 13.75 1.00331 13.75H2.19553H3.38774C3.43146 13.75 3.46722 13.3044 3.46722 12.7598V9.86523C3.46722 9.32061 3.43146 8.875 3.38774 8.875Z" fill="white"/>
</g>
<defs>
<clipPath id="clip0_89_1187">
<rect width="2.5434" height="42.25" fill="white" transform="translate(0.923828 0.75)"/>
</clipPath>
</defs>
</svg>
