<svg width="4" height="46" viewBox="0 0 4 46" fill="none" xmlns="http://www.w3.org/2000/svg">
<g clip-path="url(#clip0_87_578)">
<path d="M3.22869 16.2625H0.837991C0.794161 16.2625 0.758301 16.739 0.758301 17.3213V20.742C0.758301 21.3244 0.794161 21.8008 0.837991 21.8008H1.77833V31.8593V41.9178C1.77833 42.5002 1.81419 42.9766 1.85802 42.9766H2.21928C2.26311 42.9766 2.29897 42.5002 2.29897 41.9178V31.8593V21.8008H3.22869C3.27252 21.8008 3.30838 21.3244 3.30838 20.742V17.3213C3.30838 16.739 3.27252 16.2625 3.22869 16.2625ZM3.22869 9.3125H2.03334H0.837991C0.794161 9.3125 0.758301 9.78896 0.758301 10.3713V13.4662C0.758301 14.0485 0.794161 14.525 0.837991 14.525H2.03334H3.22869C3.27252 14.525 3.30838 14.0485 3.30838 13.4662V10.3713C3.30838 9.78896 3.27252 9.3125 3.22869 9.3125Z" fill="white"/>
</g>
<defs>
<clipPath id="clip0_87_578">
<rect width="2.55008" height="45.175" fill="white" transform="translate(0.758301 0.625)"/>
</clipPath>
</defs>
</svg>
