<svg width="7" height="42" viewBox="0 0 7 42" fill="none" xmlns="http://www.w3.org/2000/svg">
<g clip-path="url(#clip0_87_459)">
<path d="M6.77669 14.4H0.355637C0.237917 14.4 0.141602 14.8388 0.141602 15.375V18.525C0.141602 19.0613 0.237917 19.5 0.355637 19.5H2.88125V28.7625V38.025C2.88125 38.5613 2.97757 39.0001 3.09528 39.0001H4.06558C4.1833 39.0001 4.27961 38.5613 4.27961 38.025V28.7625V19.5H6.77669C6.89441 19.5 6.99072 19.0613 6.99072 18.525V15.375C6.99072 14.8388 6.89441 14.4 6.77669 14.4ZM6.77669 8H3.56616H0.355637C0.237917 8 0.141602 8.43875 0.141602 8.975V11.825C0.141602 12.3613 0.237917 12.8 0.355637 12.8H3.56616H6.77669C6.89441 12.8 6.99072 12.3613 6.99072 11.825V8.975C6.99072 8.43875 6.89441 8 6.77669 8Z" fill="white"/>
</g>
<defs>
<clipPath id="clip0_87_459">
<rect width="6.84912" height="41.6" fill="white" transform="translate(0.141602)"/>
</clipPath>
</defs>
</svg>
