<svg width="8" height="94" viewBox="0 0 8 94" fill="none" xmlns="http://www.w3.org/2000/svg">
<g clip-path="url(#clip0_87_547)">
<path d="M7.50396 32.9062H1.03284C0.914205 32.9062 0.817139 33.8917 0.817139 35.0962V42.1715C0.817139 43.3759 0.914205 44.3614 1.03284 44.3614H3.57815V65.1659V85.9703C3.57815 87.1748 3.67522 88.1602 3.79385 88.1602H4.77171C4.89035 88.1602 4.98742 87.1748 4.98742 85.9703V65.1659V44.3614H7.50396C7.6226 44.3614 7.71967 43.3759 7.71967 42.1715V35.0962C7.71967 33.8917 7.6226 32.9062 7.50396 32.9062ZM7.50396 18.5312H4.2684H1.03284C0.914205 18.5312 0.817139 19.5167 0.817139 20.7212V27.1226C0.817139 28.327 0.914205 29.3125 1.03284 29.3125H4.2684H7.50396C7.6226 29.3125 7.71967 28.327 7.71967 27.1226V20.7212C7.71967 19.5167 7.6226 18.5312 7.50396 18.5312Z" fill="white"/>
</g>
<defs>
<clipPath id="clip0_87_547">
<rect width="6.90253" height="93.4375" fill="white" transform="translate(0.817139 0.5625)"/>
</clipPath>
</defs>
</svg>
