<svg width="8" height="43" viewBox="0 0 8 43" fill="none" xmlns="http://www.w3.org/2000/svg">
<g clip-path="url(#clip0_87_475)">
<path d="M7.50396 15.375H1.03284C0.914205 15.375 0.817139 15.8206 0.817139 16.3652V19.5645C0.817139 20.1091 0.914205 20.5547 1.03284 20.5547H3.57815V29.962V39.3692C3.57815 39.9138 3.67522 40.3594 3.79385 40.3594H4.77171C4.89035 40.3594 4.98742 39.9138 4.98742 39.3692V29.962V20.5547H7.50396C7.6226 20.5547 7.71967 20.1091 7.71967 19.5645V16.3652C7.71967 15.8206 7.6226 15.375 7.50396 15.375ZM7.50396 8.875H4.2684H1.03284C0.914205 8.875 0.817139 9.32061 0.817139 9.86523V12.7598C0.817139 13.3044 0.914205 13.75 1.03284 13.75H4.2684H7.50396C7.6226 13.75 7.71967 13.3044 7.71967 12.7598V9.86523C7.71967 9.32061 7.6226 8.875 7.50396 8.875Z" fill="white"/>
</g>
<defs>
<clipPath id="clip0_87_475">
<rect width="6.90253" height="42.25" fill="white" transform="translate(0.817139 0.75)"/>
</clipPath>
</defs>
</svg>
