<svg width="8" height="94" viewBox="0 0 8 94" fill="none" xmlns="http://www.w3.org/2000/svg">
<g clip-path="url(#clip0_87_491)">
<path d="M7.5039 32.9062H1.03278C0.914144 32.9062 0.817078 33.8917 0.817078 35.0962V42.1715C0.817078 43.3759 0.914144 44.3614 1.03278 44.3614H3.57809V65.1659V85.9703C3.57809 87.1748 3.67516 88.1602 3.79379 88.1602H4.77165C4.89029 88.1602 4.98735 87.1748 4.98735 85.9703V65.1659V44.3614H7.5039C7.62254 44.3614 7.7196 43.3759 7.7196 42.1715V35.0962C7.7196 33.8917 7.62254 32.9062 7.5039 32.9062ZM7.5039 18.5312H4.26834H1.03278C0.914144 18.5312 0.817078 19.5167 0.817078 20.7212V27.1226C0.817078 28.327 0.914144 29.3125 1.03278 29.3125H4.26834H7.5039C7.62254 29.3125 7.7196 28.327 7.7196 27.1226V20.7212C7.7196 19.5167 7.62254 18.5312 7.5039 18.5312Z" fill="white"/>
</g>
<defs>
<clipPath id="clip0_87_491">
<rect width="6.90253" height="93.4375" fill="white" transform="translate(0.817078 0.5625)"/>
</clipPath>
</defs>
</svg>
