<svg width="4" height="46" viewBox="0 0 4 46" fill="none" xmlns="http://www.w3.org/2000/svg">
<g clip-path="url(#clip0_89_668)">
<path d="M3.77475 16.2625H0.382721C0.320534 16.2625 0.269653 16.739 0.269653 17.3213V20.742C0.269653 21.3244 0.320534 21.8008 0.382721 21.8008H1.71692V31.8593V41.9178C1.71692 42.5002 1.7678 42.9766 1.82999 42.9766H2.34256C2.40475 42.9766 2.45563 42.5002 2.45563 41.9178V31.8593V21.8008H3.77475C3.83694 21.8008 3.88782 21.3244 3.88782 20.742V17.3213C3.88782 16.739 3.83694 16.2625 3.77475 16.2625ZM3.77475 9.3125H2.07874H0.382721C0.320534 9.3125 0.269653 9.78896 0.269653 10.3713V13.4662C0.269653 14.0485 0.320534 14.525 0.382721 14.525H2.07874H3.77475C3.83694 14.525 3.88782 14.0485 3.88782 13.4662V10.3713C3.88782 9.78896 3.83694 9.3125 3.77475 9.3125Z" fill="white"/>
</g>
<defs>
<clipPath id="clip0_89_668">
<rect width="3.61816" height="45.175" fill="white" transform="translate(0.269653 0.625)"/>
</clipPath>
</defs>
</svg>
