<svg width="4" height="100" viewBox="0 0 4 100" fill="none" xmlns="http://www.w3.org/2000/svg">
<g clip-path="url(#clip0_87_1378)">
<path d="M3.70648 34.7063H0.508456C0.449826 34.7063 0.401855 35.7466 0.401855 37.0181V44.4871C0.401855 45.7586 0.449826 46.7989 0.508456 46.7989H1.76635V68.7612V90.7235C1.76635 91.995 1.81432 93.0353 1.87295 93.0353H2.3562C2.41483 93.0353 2.4628 91.995 2.4628 90.7235V68.7612V46.7989H3.70648C3.76511 46.7989 3.81308 45.7586 3.81308 44.4871V37.0181C3.81308 35.7466 3.76511 34.7063 3.70648 34.7063ZM3.70648 19.5312H2.10747H0.508456C0.449826 19.5312 0.401855 20.5716 0.401855 21.8431V28.6007C0.401855 29.8722 0.449826 30.9125 0.508456 30.9125H2.10747H3.70648C3.76511 30.9125 3.81308 29.8722 3.81308 28.6007V21.8431C3.81308 20.5716 3.76511 19.5312 3.70648 19.5312Z" fill="white"/>
</g>
<defs>
<clipPath id="clip0_87_1378">
<rect width="3.41122" height="98.6375" fill="white" transform="translate(0.401855 0.5625)"/>
</clipPath>
</defs>
</svg>
