<svg width="4" height="42" viewBox="0 0 4 42" fill="none" xmlns="http://www.w3.org/2000/svg">
<g clip-path="url(#clip0_89_856)">
<path d="M3.29647 14.4H0.987134C0.944796 14.4 0.910156 14.8388 0.910156 15.375V18.525C0.910156 19.0613 0.944796 19.5 0.987134 19.5H1.89547V28.7625V38.025C1.89547 38.5613 1.93011 39.0001 1.97245 39.0001H2.32141C2.36375 39.0001 2.39839 38.5613 2.39839 38.025V28.7625V19.5H3.29647C3.3388 19.5 3.37344 19.0613 3.37344 18.525V15.375C3.37344 14.8388 3.3388 14.4 3.29647 14.4ZM3.29647 8H2.1418H0.987134C0.944796 8 0.910156 8.43875 0.910156 8.975V11.825C0.910156 12.3613 0.944796 12.8 0.987134 12.8H2.1418H3.29647C3.3388 12.8 3.37344 12.3613 3.37344 11.825V8.975C3.37344 8.43875 3.3388 8 3.29647 8Z" fill="white"/>
</g>
<defs>
<clipPath id="clip0_89_856">
<rect width="2.46329" height="41.6" fill="white" transform="translate(0.910156)"/>
</clipPath>
</defs>
</svg>
