<svg width="8" height="94" viewBox="0 0 8 94" fill="none" xmlns="http://www.w3.org/2000/svg">
<g clip-path="url(#clip0_87_829)">
<path d="M7.75411 32.9062H1.21409C1.09419 32.9062 0.996094 33.8917 0.996094 35.0962V42.1715C0.996094 43.3759 1.09419 44.3614 1.21409 44.3614H3.7865V65.1659V85.9703C3.7865 87.1748 3.8846 88.1602 4.0045 88.1602H4.99277C5.11267 88.1602 5.21077 87.1748 5.21077 85.9703V65.1659V44.3614H7.75411C7.87401 44.3614 7.97211 43.3759 7.97211 42.1715V35.0962C7.97211 33.8917 7.87401 32.9062 7.75411 32.9062ZM7.75411 18.5312H4.4841H1.21409C1.09419 18.5312 0.996094 19.5167 0.996094 20.7212V27.1226C0.996094 28.327 1.09419 29.3125 1.21409 29.3125H4.4841H7.75411C7.87401 29.3125 7.97211 28.327 7.97211 27.1226V20.7212C7.97211 19.5167 7.87401 18.5312 7.75411 18.5312Z" fill="white"/>
</g>
<defs>
<clipPath id="clip0_87_829">
<rect width="6.97601" height="93.4375" fill="white" transform="translate(0.996094 0.5625)"/>
</clipPath>
</defs>
</svg>
