<svg width="8" height="43" viewBox="0 0 8 43" fill="none" xmlns="http://www.w3.org/2000/svg">
<g clip-path="url(#clip0_87_657)">
<path d="M7.5039 15.375H1.03278C0.914144 15.375 0.817078 15.8206 0.817078 16.3652V19.5645C0.817078 20.1091 0.914144 20.5547 1.03278 20.5547H3.57809V29.962V39.3692C3.57809 39.9138 3.67516 40.3594 3.79379 40.3594H4.77165C4.89029 40.3594 4.98735 39.9138 4.98735 39.3692V29.962V20.5547H7.5039C7.62254 20.5547 7.7196 20.1091 7.7196 19.5645V16.3652C7.7196 15.8206 7.62254 15.375 7.5039 15.375ZM7.5039 8.875H4.26834H1.03278C0.914144 8.875 0.817078 9.32061 0.817078 9.86523V12.7598C0.817078 13.3044 0.914144 13.75 1.03278 13.75H4.26834H7.5039C7.62254 13.75 7.7196 13.3044 7.7196 12.7598V9.86523C7.7196 9.32061 7.62254 8.875 7.5039 8.875Z" fill="white"/>
</g>
<defs>
<clipPath id="clip0_87_657">
<rect width="6.90253" height="42.25" fill="white" transform="translate(0.817078 0.75)"/>
</clipPath>
</defs>
</svg>
