<svg width="6" height="42" viewBox="0 0 6 42" fill="none" xmlns="http://www.w3.org/2000/svg">
<g clip-path="url(#clip0_87_467)">
<path d="M5.20758 14.4H0.219669C0.128224 14.4 0.0534058 14.8388 0.0534058 15.375V18.525C0.0534058 19.0613 0.128224 19.5 0.219669 19.5H2.18158V28.7625V38.025C2.18158 38.5613 2.2564 39.0001 2.34784 39.0001H3.10157C3.19302 39.0001 3.26783 38.5613 3.26783 38.025V28.7625V19.5H5.20758C5.29902 19.5 5.37384 19.0613 5.37384 18.525V15.375C5.37384 14.8388 5.29902 14.4 5.20758 14.4ZM5.20758 8H2.71362H0.219669C0.128224 8 0.0534058 8.43875 0.0534058 8.975V11.825C0.0534058 12.3613 0.128224 12.8 0.219669 12.8H2.71362H5.20758C5.29902 12.8 5.37384 12.3613 5.37384 11.825V8.975C5.37384 8.43875 5.29902 8 5.20758 8Z" fill="white"/>
</g>
<defs>
<clipPath id="clip0_87_467">
<rect width="5.32043" height="41.6" fill="white" transform="translate(0.0534058)"/>
</clipPath>
</defs>
</svg>
