<svg width="8" height="94" viewBox="0 0 8 94" fill="none" xmlns="http://www.w3.org/2000/svg">
<g clip-path="url(#clip0_87_1218)">
<path d="M7.75398 32.9062H1.21397C1.09407 32.9062 0.995972 33.8917 0.995972 35.0962V42.1715C0.995972 43.3759 1.09407 44.3614 1.21397 44.3614H3.78638V65.1659V85.9703C3.78638 87.1748 3.88448 88.1602 4.00438 88.1602H4.99265C5.11255 88.1602 5.21065 87.1748 5.21065 85.9703V65.1659V44.3614H7.75398C7.87388 44.3614 7.97198 43.3759 7.97198 42.1715V35.0962C7.97198 33.8917 7.87388 32.9062 7.75398 32.9062ZM7.75398 18.5312H4.48398H1.21397C1.09407 18.5312 0.995972 19.5167 0.995972 20.7212V27.1226C0.995972 28.327 1.09407 29.3125 1.21397 29.3125H4.48398H7.75398C7.87388 29.3125 7.97198 28.327 7.97198 27.1226V20.7212C7.97198 19.5167 7.87388 18.5312 7.75398 18.5312Z" fill="white"/>
</g>
<defs>
<clipPath id="clip0_87_1218">
<rect width="6.97601" height="93.4375" fill="white" transform="translate(0.995972 0.5625)"/>
</clipPath>
</defs>
</svg>
