<svg width="4" height="46" viewBox="0 0 4 46" fill="none" xmlns="http://www.w3.org/2000/svg">
<g clip-path="url(#clip0_89_330)">
<path d="M3.22918 16.2625H0.838479C0.79465 16.2625 0.758789 16.739 0.758789 17.3213V20.742C0.758789 21.3244 0.79465 21.8008 0.838479 21.8008H1.77882V31.8593V41.9178C1.77882 42.5002 1.81468 42.9766 1.85851 42.9766H2.21977C2.2636 42.9766 2.29946 42.5002 2.29946 41.9178V31.8593V21.8008H3.22918C3.27301 21.8008 3.30887 21.3244 3.30887 20.742V17.3213C3.30887 16.739 3.27301 16.2625 3.22918 16.2625ZM3.22918 9.3125H2.03383H0.838479C0.79465 9.3125 0.758789 9.78896 0.758789 10.3713V13.4662C0.758789 14.0485 0.79465 14.525 0.838479 14.525H2.03383H3.22918C3.27301 14.525 3.30887 14.0485 3.30887 13.4662V10.3713C3.30887 9.78896 3.27301 9.3125 3.22918 9.3125Z" fill="white"/>
</g>
<defs>
<clipPath id="clip0_89_330">
<rect width="2.55008" height="45.175" fill="white" transform="translate(0.758789 0.625)"/>
</clipPath>
</defs>
</svg>
