<svg width="28" height="28" viewBox="0 0 28 28" fill="none" xmlns="http://www.w3.org/2000/svg">
<path fill-rule="evenodd" clip-rule="evenodd" d="M7 0C6.0335 0 5.25 0.783502 5.25 1.75V3.5H3.5C1.567 3.5 0 5.067 0 7V24.5C0 26.433 1.567 28 3.5 28H24.5C26.433 28 28 26.433 28 24.5V7C28 5.067 26.433 3.5 24.5 3.5H22.75V1.75C22.75 0.783502 21.9665 0 21 0C20.0335 0 19.25 0.783502 19.25 1.75V3.5H8.75V1.75C8.75 0.783502 7.9665 0 7 0ZM7 8.75C6.0335 8.75 5.25 9.5335 5.25 10.5C5.25 11.4665 6.0335 12.25 7 12.25H21C21.9665 12.25 22.75 11.4665 22.75 10.5C22.75 9.5335 21.9665 8.75 21 8.75H7Z" fill="#3675D3"/>
</svg>
