<svg width="16" height="138" viewBox="0 0 16 138" fill="none" xmlns="http://www.w3.org/2000/svg">
<path d="M13.9351 85.9765H6.2067L6.37925 94.5117H13.4558C13.8618 94.5117 14.1628 98.3261 14.0728 102.332L13.9273 108.807C14.4201 111.227 14.7599 116.337 14.7599 122.251C14.7599 130.573 14.0871 137.306 13.2618 137.186C12.4755 137.071 11.8289 130.616 11.8077 122.664C11.7961 118.319 11.9681 114.382 12.2507 111.582H6.72354C6.99711 114.293 7.16708 118.07 7.16708 122.251C7.16708 130.736 6.4677 137.569 5.62031 137.171C4.86789 136.818 4.25596 130.667 4.21641 123.057C4.18588 117.18 4.49155 112 4.95595 109.298L3.10396 17.6953H1.26158C0.912125 17.6953 0.628845 14.8294 0.628845 11.2939V7.02637C0.628845 3.49094 0.912125 0.625 1.26158 0.625H3.96464C4.26521 0.625 4.52429 2.76439 4.58453 5.74343L4.82618 17.6953H15.1814C15.5875 17.6953 15.8884 21.5097 15.7984 25.5154L14.5521 80.9939C14.4867 83.9084 14.2306 85.9765 13.9351 85.9765Z" fill="#A6A6A6"/>
</svg>
