<svg width="6" height="61" viewBox="0 0 6 61" fill="none" xmlns="http://www.w3.org/2000/svg">
<path d="M4.9097 38H2.15168L2.21326 41.8H4.73864C4.88354 41.8 4.99093 43.4982 4.95882 45.2816L4.90692 48.1644C5.08277 49.2418 5.20402 51.5171 5.20402 54.15C5.20402 57.8552 4.96393 60.8527 4.6694 60.7993C4.38882 60.7483 4.15806 57.8743 4.15048 54.3337C4.14634 52.3996 4.20773 50.6466 4.30857 49.3999H2.33612C2.43375 50.6071 2.49441 52.2887 2.49441 54.15C2.49441 57.9278 2.24482 60.9699 1.94242 60.7926C1.67391 60.6353 1.45553 57.8969 1.44142 54.5087C1.43052 51.8922 1.5396 49.5859 1.70533 48.3829L1.04442 7.6H0.386934C0.262226 7.6 0.161133 6.32403 0.161133 4.75V2.85C0.161133 1.27597 0.262226 0 0.386934 0H1.35157C1.45883 0 1.55129 0.952493 1.57278 2.27881L1.65902 7.6H5.35446C5.49936 7.6 5.60676 9.29824 5.57465 11.0816L5.12988 35.7816C5.10652 37.0792 5.01513 38 4.9097 38Z" fill="#A6A6A6"/>
</svg>
