<svg width="16" height="138" viewBox="0 0 16 138" fill="none" xmlns="http://www.w3.org/2000/svg">
<path d="M13.7535 85.9765H5.94286L6.11725 94.5117H13.2691C13.6794 94.5117 13.9836 98.3261 13.8926 102.332L13.7456 108.807C14.2436 111.227 14.587 116.337 14.587 122.251C14.587 130.573 13.9071 137.306 13.073 137.186C12.2784 137.071 11.6249 130.616 11.6034 122.664C11.5917 118.319 11.7655 114.382 12.0511 111.582H6.46519C6.74168 114.293 6.91346 118.07 6.91346 122.251C6.91346 130.736 6.20664 137.569 5.35023 137.171C4.58981 136.818 3.97136 130.667 3.9314 123.057C3.90054 117.18 4.20946 112 4.6788 109.298L2.80711 17.6953H0.945128C0.591957 17.6953 0.305664 14.8294 0.305664 11.2939V7.02637C0.305664 3.49094 0.591957 0.625 0.945128 0.625H3.67694C3.98072 0.625 4.24255 2.76439 4.30343 5.74343L4.54765 17.6953H15.0131C15.4234 17.6953 15.7276 21.5097 15.6366 25.5154L14.3771 80.9939C14.3109 83.9084 14.0521 85.9765 13.7535 85.9765Z" fill="#A6A6A6"/>
</svg>
