<svg width="7" height="63" viewBox="0 0 7 63" fill="none" xmlns="http://www.w3.org/2000/svg">
<path d="M5.71159 39.0937H2.86388L2.92746 42.9531H5.53496C5.68457 42.9531 5.79546 44.6779 5.76231 46.4891L5.70871 49.417C5.89028 50.5112 6.01548 52.822 6.01548 55.4961C6.01548 59.2592 5.76758 62.3035 5.46347 62.2493C5.17376 62.1975 4.9355 59.2786 4.92768 55.6827C4.9234 53.7184 4.98679 51.938 5.09091 50.6717H3.05432C3.15512 51.8978 3.21775 53.6057 3.21775 55.4961C3.21775 59.3329 2.96005 62.4226 2.64781 62.2425C2.37056 62.0827 2.14508 59.3015 2.13051 55.8604C2.11926 53.203 2.23189 50.8607 2.40301 49.6389L1.72061 8.21875H1.04174C0.912974 8.21875 0.808594 6.92284 0.808594 5.32422V3.39453C0.808594 1.79591 0.912974 0.5 1.04174 0.5H2.03774C2.14849 0.5 2.24396 1.46738 2.26615 2.81442L2.35519 8.21875H6.17081C6.32042 8.21875 6.43131 9.94353 6.39816 11.7548L5.93893 36.8407C5.91481 38.1586 5.82045 39.0937 5.71159 39.0937Z" fill="#A6A6A6"/>
</svg>
