<svg width="13" height="61" viewBox="0 0 13 61" fill="none" xmlns="http://www.w3.org/2000/svg">
<path d="M10.8465 38H4.88949L5.02249 41.8H10.477C10.79 41.8 11.022 43.4982 10.9526 45.2816L10.8405 48.1644C11.2203 49.2418 11.4822 51.5171 11.4822 54.15C11.4822 57.8552 10.9636 60.8527 10.3275 60.7993C9.72145 60.7483 9.22304 57.8743 9.20668 54.3337C9.19774 52.3996 9.33033 50.6466 9.54813 49.3999H5.28786C5.49873 50.6071 5.62974 52.2887 5.62974 54.15C5.62974 57.9278 5.09067 60.9699 4.43751 60.7926C3.85754 60.6353 3.38587 57.8969 3.35539 54.5087C3.33186 51.8922 3.56746 49.5859 3.92542 48.3829L2.49792 7.6H1.07782C0.808468 7.6 0.590118 6.32403 0.590118 4.75V2.85C0.590118 1.27597 0.808468 0 1.07782 0H3.16132C3.393 0 3.5927 0.952493 3.63913 2.27881L3.8254 7.6H11.8071C12.1201 7.6 12.3521 9.29824 12.2827 11.0816L11.3221 35.7816C11.2716 37.0792 11.0742 38 10.8465 38Z" fill="#A6A6A6"/>
</svg>
