<svg width="9" height="145" viewBox="0 0 9 145" fill="none" xmlns="http://www.w3.org/2000/svg">
<path d="M7.56666 90.7265H3.74728L3.83256 99.7367H7.32976C7.53042 99.7367 7.67915 103.763 7.63468 107.992L7.5628 114.827C7.80632 117.382 7.97424 122.777 7.97424 129.02C7.97424 137.805 7.64175 144.912 7.23388 144.786C6.84532 144.665 6.52576 137.85 6.51527 129.455C6.50954 124.869 6.59455 120.713 6.7342 117.757H4.0027C4.1379 120.619 4.2219 124.606 4.2219 129.02C4.2219 137.977 3.87627 145.19 3.45749 144.77C3.08565 144.397 2.78323 137.904 2.76369 129.87C2.7486 123.666 2.89966 118.198 3.12916 115.345L2.21392 18.6453H1.30342C1.13072 18.6453 0.990723 15.6199 0.990723 11.8877V7.38261C0.990723 3.65044 1.13072 0.625 1.30342 0.625H2.63926C2.78781 0.625 2.91584 2.88345 2.94561 6.02828L3.06504 18.6453H8.18257C8.38323 18.6453 8.53196 22.672 8.48749 26.9006L7.87157 85.4666C7.83922 88.5433 7.71266 90.7265 7.56666 90.7265Z" fill="#A6A6A6"/>
</svg>
