<svg width="16" height="61" viewBox="0 0 16 61" fill="none" xmlns="http://www.w3.org/2000/svg">
<path d="M14.0671 38H6.39847L6.56968 41.8H13.5915C13.9944 41.8 14.293 43.4982 14.2037 45.2816L14.0594 48.1644C14.5483 49.2418 14.8855 51.5171 14.8855 54.15C14.8855 57.8552 14.2179 60.8527 13.399 60.7993C12.6188 60.7483 11.9772 57.8743 11.9561 54.3337C11.9446 52.3996 12.1153 50.6466 12.3957 49.3999H6.9113C7.18277 50.6071 7.35142 52.2887 7.35142 54.15C7.35142 57.9278 6.65745 60.9699 5.81662 60.7926C5.07002 60.6353 4.46282 57.8969 4.42358 54.5087C4.39329 51.8922 4.69658 49.5859 5.15739 48.3829L3.31974 7.6H1.49161C1.14486 7.6 0.86377 6.32403 0.86377 4.75V2.85C0.86377 1.27597 1.14486 0 1.49161 0H4.17375C4.472 0 4.72907 0.952493 4.78885 2.27881L5.02863 7.6H15.3038C15.7066 7.6 16.0053 9.29824 15.916 11.0816L14.6793 35.7816C14.6144 37.0792 14.3603 38 14.0671 38Z" fill="#A6A6A6"/>
</svg>
