<svg width="7" height="67" viewBox="0 0 7 67" fill="none" xmlns="http://www.w3.org/2000/svg">
<path d="M5.69565 41.5156H2.84046L2.90421 45.6422H5.51856C5.66856 45.6422 5.77974 47.4864 5.7465 49.423L5.69277 52.5535C5.87481 53.7235 6.00034 56.1943 6.00034 59.0535C6.00034 63.0772 5.75179 66.3322 5.44688 66.2742C5.15641 66.2189 4.91752 63.0979 4.90968 59.253C4.9054 57.1527 4.96895 55.2491 5.07334 53.8952H3.0314C3.13247 55.2061 3.19527 57.0323 3.19527 59.0535C3.19527 63.156 2.93689 66.4595 2.62383 66.267C2.34585 66.0961 2.11978 63.1224 2.10517 59.4431C2.09389 56.6017 2.20682 54.0972 2.37839 52.7908L1.69419 8.50312H1.01354C0.88444 8.50312 0.779785 7.1175 0.779785 5.4082V3.34492C0.779785 1.63562 0.88444 0.25 1.01354 0.25H2.01216C2.1232 0.25 2.21892 1.28435 2.24117 2.72465L2.33045 8.50312H6.15608C6.30608 8.50312 6.41726 10.3473 6.38402 12.284L5.92359 39.1066C5.89941 40.5157 5.80479 41.5156 5.69565 41.5156Z" fill="#A6A6A6"/>
</svg>
