<svg width="16" height="63" viewBox="0 0 16 63" fill="none" xmlns="http://www.w3.org/2000/svg">
<path d="M13.9352 39.0937H6.20676L6.37931 42.9531H13.4558C13.8619 42.9531 14.1628 44.6779 14.0728 46.4891L13.9274 49.417C14.4202 50.5112 14.7599 52.822 14.7599 55.4961C14.7599 59.2592 14.0872 62.3035 13.2618 62.2493C12.4756 62.1975 11.829 59.2786 11.8077 55.6827C11.7961 53.7184 11.9682 51.938 12.2507 50.6717H6.7236C6.99717 51.8978 7.16714 53.6057 7.16714 55.4961C7.16714 59.3329 6.46776 62.4226 5.62038 62.2425C4.86795 62.0827 4.25602 59.3015 4.21647 55.8604C4.18594 53.203 4.49161 50.8607 4.95601 49.6389L3.10402 8.21875H1.26164C0.912186 8.21875 0.628906 6.92284 0.628906 5.32422V3.39453C0.628906 1.79591 0.912186 0.5 1.26164 0.5H3.9647C4.26527 0.5 4.52435 1.46738 4.58459 2.81442L4.82624 8.21875H15.1815C15.5875 8.21875 15.8885 9.94353 15.7985 11.7548L14.5522 36.8407C14.4867 38.1586 14.2306 39.0937 13.9352 39.0937Z" fill="#A6A6A6"/>
</svg>
