<svg width="16" height="138" viewBox="0 0 16 138" fill="none" xmlns="http://www.w3.org/2000/svg">
<path d="M13.7536 85.9765H5.94292L6.11731 94.5117H13.2691C13.6795 94.5117 13.9836 98.3261 13.8927 102.332L13.7457 108.807C14.2437 111.227 14.5871 116.337 14.5871 122.251C14.5871 130.573 13.9071 137.306 13.073 137.186C12.2784 137.071 11.6249 130.616 11.6035 122.664C11.5918 118.319 11.7656 114.382 12.0512 111.582H6.46525C6.74174 114.293 6.91352 118.07 6.91352 122.251C6.91352 130.736 6.2067 137.569 5.3503 137.171C4.58987 136.818 3.97143 130.667 3.93146 123.057C3.9006 117.18 4.20952 112 4.67886 109.298L2.80717 17.6953H0.945189C0.592018 17.6953 0.305725 14.8294 0.305725 11.2939V7.02637C0.305725 3.49094 0.592018 0.625 0.945189 0.625H3.67701C3.98078 0.625 4.24261 2.76439 4.30349 5.74343L4.54772 17.6953H15.0131C15.4235 17.6953 15.7276 21.5097 15.6367 25.5154L14.3771 80.9939C14.311 83.9084 14.0521 85.9765 13.7536 85.9765Z" fill="#A6A6A6"/>
</svg>
