<svg width="72" height="71" viewBox="0 0 72 71" fill="none" xmlns="http://www.w3.org/2000/svg">
<path d="M8.45228 1.18913L8.77941 1.48539L36 28.3265L63.2206 1.48539C65.229 -0.495129 68.4853 -0.495129 70.4937 1.48539C72.3964 3.36167 72.4965 6.34236 70.7941 8.33489L70.4937 8.65747L43.2746 35.5L70.4937 62.3425C72.5021 64.3231 72.5021 67.5341 70.4937 69.5146C68.591 71.3909 65.5683 71.4896 63.5477 69.8109L63.2206 69.5146L36 42.6735L8.77941 69.5146C6.771 71.4951 3.51472 71.4951 1.50631 69.5146C-0.396397 67.6383 -0.496539 64.6576 1.20588 62.6651L1.50631 62.3425L28.7254 35.5L1.50631 8.65747C-0.502103 6.67695 -0.502103 3.4659 1.50631 1.48539C3.30331 -0.286654 6.09929 -0.473184 8.1066 0.925795L8.45228 1.18913Z" fill="#E64646"/>
</svg>
