<svg width="16" height="63" viewBox="0 0 16 63" fill="none" xmlns="http://www.w3.org/2000/svg">
<path d="M13.9351 39.0937H6.2067L6.37925 42.9531H13.4558C13.8618 42.9531 14.1628 44.6779 14.0728 46.4891L13.9273 49.417C14.4201 50.5112 14.7599 52.822 14.7599 55.4961C14.7599 59.2592 14.0871 62.3035 13.2618 62.2493C12.4755 62.1975 11.8289 59.2786 11.8077 55.6827C11.7961 53.7184 11.9681 51.938 12.2507 50.6717H6.72354C6.99711 51.8978 7.16708 53.6057 7.16708 55.4961C7.16708 59.3329 6.4677 62.4226 5.62031 62.2425C4.86789 62.0827 4.25596 59.3015 4.21641 55.8604C4.18588 53.203 4.49155 50.8607 4.95595 49.6389L3.10396 8.21875H1.26158C0.912125 8.21875 0.628845 6.92284 0.628845 5.32422V3.39453C0.628845 1.79591 0.912125 0.5 1.26158 0.5H3.96464C4.26521 0.5 4.52429 1.46738 4.58453 2.81442L4.82618 8.21875H15.1814C15.5875 8.21875 15.8884 9.94353 15.7984 11.7548L14.5521 36.8407C14.4867 38.1586 14.2306 39.0937 13.9351 39.0937Z" fill="#A6A6A6"/>
</svg>
