<svg width="4" height="61" viewBox="0 0 4 61" fill="none" xmlns="http://www.w3.org/2000/svg">
<path d="M3.4352 38H1.82075L1.85679 41.8H3.33506C3.41988 41.8 3.48275 43.4982 3.46395 45.2816L3.43357 48.1644C3.53651 49.2418 3.60748 51.5171 3.60748 54.15C3.60748 57.8552 3.46694 60.8527 3.29454 60.7993C3.13029 60.7483 2.99521 57.8743 2.99078 54.3337C2.98835 52.3996 3.02429 50.6466 3.08332 49.3999H1.92871C1.98586 50.6071 2.02137 52.2887 2.02137 54.15C2.02137 57.9278 1.87527 60.9699 1.69825 60.7926C1.54107 60.6353 1.41324 57.8969 1.40498 54.5087C1.3986 51.8922 1.46246 49.5859 1.55947 48.3829L1.17259 7.6H0.787724C0.714725 7.6 0.655548 6.32403 0.655548 4.75V2.85C0.655548 1.27597 0.714725 0 0.787724 0H1.35239C1.41518 0 1.4693 0.952493 1.48188 2.27881L1.53236 7.6H3.69555C3.78037 7.6 3.84323 9.29824 3.82444 11.0816L3.56409 35.7816C3.55041 37.0792 3.49691 38 3.4352 38Z" fill="#A6A6A6"/>
</svg>
