<svg width="16" height="138" viewBox="0 0 16 138" fill="none" xmlns="http://www.w3.org/2000/svg">
<path d="M13.9352 85.9765H6.20676L6.37931 94.5117H13.4558C13.8619 94.5117 14.1628 98.3261 14.0728 102.332L13.9274 108.807C14.4202 111.227 14.7599 116.337 14.7599 122.251C14.7599 130.573 14.0872 137.306 13.2618 137.186C12.4756 137.071 11.829 130.616 11.8077 122.664C11.7961 118.319 11.9682 114.382 12.2507 111.582H6.7236C6.99717 114.293 7.16714 118.07 7.16714 122.251C7.16714 130.736 6.46776 137.569 5.62038 137.171C4.86795 136.818 4.25602 130.667 4.21647 123.057C4.18594 117.18 4.49161 112 4.95601 109.298L3.10402 17.6953H1.26164C0.912186 17.6953 0.628906 14.8294 0.628906 11.2939V7.02637C0.628906 3.49094 0.912186 0.625 1.26164 0.625H3.9647C4.26527 0.625 4.52435 2.76439 4.58459 5.74343L4.82624 17.6953H15.1815C15.5875 17.6953 15.8885 21.5097 15.7985 25.5154L14.5522 80.9939C14.4867 83.9084 14.2306 85.9765 13.9352 85.9765Z" fill="#A6A6A6"/>
</svg>
