<svg width="9" height="67" viewBox="0 0 9 67" fill="none" xmlns="http://www.w3.org/2000/svg">
<path d="M7.05494 41.5156H3.00387L3.09431 45.6422H6.80368C7.01651 45.6422 7.17426 47.4864 7.12709 49.423L7.05085 52.5535C7.30915 53.7235 7.48725 56.1943 7.48725 59.0535C7.48725 63.0772 7.1346 66.3322 6.70198 66.2742C6.28985 66.2189 5.9509 63.0979 5.93977 59.253C5.93369 57.1527 6.02387 55.2491 6.17198 53.8952H3.27478C3.41818 55.2061 3.50728 57.0323 3.50728 59.0535C3.50728 63.156 3.14068 66.4595 2.6965 66.267C2.30209 66.0961 1.98133 63.1224 1.9606 59.4431C1.9446 56.6017 2.10482 54.0972 2.34825 52.7908L1.37748 8.50312H0.411743C0.228567 8.50312 0.0800781 7.1175 0.0800781 5.4082V3.34492C0.0800781 1.63562 0.228567 0.25 0.411743 0.25H1.82863C1.98618 0.25 2.12198 1.28435 2.15356 2.72465L2.28023 8.50312H7.70822C7.92105 8.50312 8.0788 10.3473 8.03164 12.284L7.37836 39.1066C7.34404 40.5157 7.2098 41.5156 7.05494 41.5156Z" fill="#A6A6A6"/>
</svg>
