<svg width="16" height="138" viewBox="0 0 16 138" fill="none" xmlns="http://www.w3.org/2000/svg">
<path d="M13.754 85.9765H5.94335L6.11773 94.5117H13.2696C13.6799 94.5117 13.984 98.3261 13.8931 102.332L13.7461 108.807C14.2441 111.227 14.5875 116.337 14.5875 122.251C14.5875 130.573 13.9076 137.306 13.0735 137.186C12.2789 137.071 11.6254 130.616 11.6039 122.664C11.5922 118.319 11.766 114.382 12.0516 111.582H6.46568C6.74217 114.293 6.91395 118.07 6.91395 122.251C6.91395 130.736 6.20713 137.569 5.35072 137.171C4.59029 136.818 3.97185 130.667 3.93189 123.057C3.90103 117.18 4.20995 112 4.67929 109.298L2.8076 17.6953H0.945616C0.592446 17.6953 0.306152 14.8294 0.306152 11.2939V7.02637C0.306152 3.49094 0.592446 0.625 0.945616 0.625H3.67743C3.9812 0.625 4.24304 2.76439 4.30392 5.74343L4.54814 17.6953H15.0136C15.4239 17.6953 15.728 21.5097 15.6371 25.5154L14.3776 80.9939C14.3114 83.9084 14.0526 85.9765 13.754 85.9765Z" fill="#A6A6A6"/>
</svg>
