<svg width="7" height="67" viewBox="0 0 7 67" fill="none" xmlns="http://www.w3.org/2000/svg">
<path d="M5.69516 41.5156H2.83997L2.90372 45.6422H5.51807C5.66807 45.6422 5.77925 47.4864 5.74601 49.423L5.69228 52.5535C5.87433 53.7235 5.99985 56.1943 5.99985 59.0535C5.99985 63.0772 5.7513 66.3322 5.4464 66.2742C5.15592 66.2189 4.91704 63.0979 4.90919 59.253C4.90491 57.1527 4.96846 55.2491 5.07285 53.8952H3.03091C3.13198 55.2061 3.19478 57.0323 3.19478 59.0535C3.19478 63.156 2.9364 66.4595 2.62334 66.267C2.34537 66.0961 2.11929 63.1224 2.10468 59.4431C2.09341 56.6017 2.20633 54.0972 2.3779 52.7908L1.6937 8.50312H1.01305C0.883951 8.50312 0.779297 7.1175 0.779297 5.4082V3.34492C0.779297 1.63562 0.883951 0.25 1.01305 0.25H2.01167C2.12271 0.25 2.21843 1.28435 2.24068 2.72465L2.32996 8.50312H6.15559C6.3056 8.50312 6.41678 10.3473 6.38353 12.284L5.9231 39.1066C5.89892 40.5157 5.80431 41.5156 5.69516 41.5156Z" fill="#A6A6A6"/>
</svg>
