<svg width="48" height="48" viewBox="0 0 48 48" fill="none" xmlns="http://www.w3.org/2000/svg">
<path d="M25.1481 12.0407C25.5756 12.1092 25.9801 12.2727 26.3432 12.5633C26.9381 13.0392 27.2214 13.6391 27.4404 14.5149C27.4964 14.7391 27.5934 15.0005 27.7146 15.2542C27.9927 15.3724 28.2648 15.5038 28.5299 15.6479C28.7917 15.5832 29.0431 15.4973 29.2438 15.4039C30.6561 14.7464 31.8408 14.781 32.811 15.8274C32.8931 15.9159 32.9421 15.9746 33.0487 16.1062L33.678 16.8834C33.8472 17.0924 33.9195 17.1876 34.0263 17.3653C34.7182 18.5167 34.4484 19.5891 33.5739 20.7511C33.4288 20.9439 33.2806 21.1963 33.1567 21.4618C33.2349 21.7444 33.3 22.0309 33.3518 22.3206C33.5745 22.499 33.8113 22.6554 34.0204 22.7621C34.8245 23.1725 35.3454 23.5835 35.6753 24.2702C35.8766 24.6894 35.9451 25.1202 35.9155 25.5522C35.8999 25.7805 35.8753 25.9078 35.8095 26.1928L35.5845 27.1672C35.5187 27.4521 35.4851 27.5773 35.399 27.7894C35.2362 28.1906 34.9858 28.5479 34.6211 28.8364C34.0235 29.3089 33.3753 29.45 32.4726 29.4663C32.2443 29.4705 31.9714 29.5054 31.7 29.5652C31.5235 29.809 31.3356 30.0443 31.1369 30.2704C31.1403 30.5446 31.1676 30.814 31.2143 31.0344C31.4014 31.9176 31.4098 32.581 31.0837 33.2695C30.8847 33.6898 30.5929 34.0141 30.2386 34.2631C30.0513 34.3946 29.9369 34.4555 29.674 34.5837L28.7752 35.0221C28.5124 35.1503 28.3939 35.203 28.175 35.2696C27.7607 35.3955 27.3255 35.4258 26.8717 35.3238C26.1284 35.1569 25.6108 34.7419 25.0301 34.0506C24.8765 33.8679 24.6668 33.6691 24.4387 33.49C24.2929 33.4967 24.1467 33.5 24.0001 33.5C23.8535 33.5 23.7073 33.4967 23.5615 33.49C23.3334 33.6691 23.1236 33.8679 22.9701 34.0506C22.3894 34.7419 21.8718 35.1569 21.1284 35.3238C20.6747 35.4258 20.2395 35.3955 19.8252 35.2696C19.6063 35.203 19.4878 35.1503 19.2249 35.0221L18.3261 34.5837C18.2471 34.5453 18.1981 34.521 18.1408 34.4912C16.8293 33.8082 16.4448 32.6441 16.7859 31.0344C16.8326 30.814 16.8598 30.5446 16.8633 30.2704C16.6646 30.0443 16.4766 29.809 16.3002 29.5652C16.0287 29.5054 15.7559 29.4705 15.5275 29.4663C14.6249 29.45 13.9766 29.3089 13.3791 28.8364C13.0143 28.5479 12.764 28.1906 12.6011 27.7894C12.5151 27.5773 12.4814 27.4521 12.4157 27.1672L12.1907 26.1928C12.121 25.8911 12.0954 25.7565 12.0822 25.512C12.0574 25.0537 12.1451 24.5984 12.3777 24.1664C12.7167 23.537 13.2184 23.1507 13.9798 22.7621C14.1889 22.6554 14.4256 22.499 14.6484 22.3206C14.7002 22.0309 14.7653 21.7444 14.8435 21.4618C14.7195 21.1963 14.5714 20.9439 14.4263 20.7511C13.5518 19.5891 13.282 18.5167 13.9739 17.3653C14.0806 17.1876 14.1529 17.0924 14.3222 16.8834L14.9515 16.1062C15.0581 15.9746 15.1071 15.9159 15.1892 15.8274C16.1594 14.781 17.3441 14.7464 18.7564 15.4039C18.9571 15.4973 19.2085 15.5832 19.4702 15.6479C19.7354 15.5038 20.0075 15.3724 20.2855 15.2542C20.4068 15.0005 20.5037 14.7391 20.5598 14.5149C20.7788 13.6391 21.0621 13.0392 21.6569 12.5633C22.0201 12.2727 22.4245 12.1092 22.8521 12.0407C23.0329 12.0118 23.1519 12.0031 23.3421 12.0008L24.5001 12C24.7926 12 24.9221 12.0046 25.1481 12.0407ZM24.5858 14.0002L23.5001 14C23.0001 14 22.7501 14 22.5001 15C22.3613 15.5551 22.0685 16.2642 21.6644 16.8708C21.0218 17.0812 20.4174 17.3761 19.8645 17.7423C19.1477 17.6717 18.4244 17.4555 17.9123 17.217C16.9778 16.782 16.8205 16.9763 16.5058 17.3649L15.8765 18.142C15.5618 18.5306 15.4045 18.7249 16.0243 19.5485C16.3732 20.012 16.7454 20.6984 16.9613 21.4045C16.7403 22.0038 16.5936 22.6392 16.5324 23.2993C16.0308 23.8335 15.4014 24.282 14.8889 24.5436C13.9707 25.0121 14.027 25.2557 14.1394 25.7429L14.3644 26.7173C14.4769 27.2044 14.5331 27.448 15.5637 27.4667C16.1335 27.477 16.8867 27.6018 17.5666 27.8571C17.9119 28.4319 18.3321 28.9565 18.8136 29.4177C18.908 30.1352 18.8602 30.8935 18.7425 31.449C18.5288 32.4574 18.7535 32.567 19.2029 32.7862L20.1017 33.2245C20.5511 33.4437 20.7758 33.5533 21.4388 32.7641C21.8106 32.3216 22.3926 31.8067 23.0293 31.4377C23.3471 31.4788 23.6711 31.5 24.0001 31.5C24.329 31.5 24.6531 31.4788 24.9709 31.4377C25.6075 31.8067 26.1895 32.3216 26.5613 32.7641C27.2244 33.5533 27.4491 33.4437 27.8985 33.2245L28.7973 32.7862C29.2467 32.567 29.4714 32.4574 29.2577 31.449C29.14 30.8935 29.0922 30.1352 29.1865 29.4177C29.6681 28.9565 30.0882 28.4319 30.4336 27.8571C31.1135 27.6018 31.8666 27.477 32.4365 27.4667C33.4671 27.448 33.5233 27.2044 33.6358 26.7173L33.8607 25.7429C33.9732 25.2557 34.0294 25.0121 33.1113 24.5436C32.5987 24.282 31.9694 23.8335 31.4678 23.2993C31.4066 22.6392 31.2599 22.0038 31.0388 21.4045C31.2547 20.6984 31.627 20.012 31.9759 19.5485C32.5957 18.7249 32.4383 18.5306 32.1237 18.142L31.4944 17.3649C31.1797 16.9763 31.0224 16.782 30.0879 17.217C29.5758 17.4555 28.8525 17.6717 28.1357 17.7423C27.5827 17.3761 26.9784 17.0812 26.3358 16.8708C25.9317 16.2642 25.6389 15.5551 25.5001 15C25.2648 14.0588 25.0295 14.0035 24.5858 14.0002ZM24.0001 19.5C26.4854 19.5 28.5001 21.5147 28.5001 24C28.5001 26.4853 26.4854 28.5 24.0001 28.5C21.5148 28.5 19.5001 26.4853 19.5001 24C19.5001 21.5147 21.5148 19.5 24.0001 19.5ZM24.0001 21.5C22.6194 21.5 21.5001 22.6193 21.5001 24C21.5001 25.3807 22.6194 26.5 24.0001 26.5C25.3808 26.5 26.5001 25.3807 26.5001 24C26.5001 22.6193 25.3808 21.5 24.0001 21.5Z" fill="#E4EAF0" fill-opacity="0.78"/>
</svg>
