<svg width="48" height="48" viewBox="0 0 48 48" fill="none" xmlns="http://www.w3.org/2000/svg">
<path d="M25.148 12.0407C25.5755 12.1092 25.98 12.2727 26.3431 12.5633C26.938 13.0392 27.2213 13.6391 27.4403 14.5149C27.4963 14.7391 27.5933 15.0005 27.7145 15.2542C27.9926 15.3724 28.2647 15.5038 28.5299 15.6479C28.7916 15.5832 29.043 15.4973 29.2437 15.4039C30.656 14.7464 31.8407 14.781 32.8109 15.8274C32.893 15.9159 32.942 15.9746 33.0486 16.1062L33.6779 16.8834C33.8471 17.0924 33.9194 17.1876 34.0262 17.3653C34.7181 18.5167 34.4483 19.5891 33.5738 20.7511C33.4287 20.9439 33.2806 21.1963 33.1566 21.4618C33.2348 21.7444 33.2999 22.0309 33.3517 22.3206C33.5744 22.499 33.8112 22.6554 34.0203 22.7621C34.8245 23.1725 35.3453 23.5835 35.6752 24.2702C35.8765 24.6894 35.945 25.1202 35.9154 25.5522C35.8998 25.7805 35.8752 25.9078 35.8094 26.1928L35.5844 27.1672C35.5186 27.4521 35.485 27.5773 35.399 27.7894C35.2361 28.1906 34.9857 28.5479 34.621 28.8364C34.0234 29.3089 33.3752 29.45 32.4725 29.4663C32.2442 29.4705 31.9713 29.5054 31.6999 29.5652C31.5235 29.809 31.3355 30.0443 31.1368 30.2704C31.1402 30.5446 31.1675 30.814 31.2142 31.0344C31.4013 31.9176 31.4097 32.581 31.0836 33.2695C30.8846 33.6898 30.5928 34.0141 30.2385 34.2631C30.0512 34.3946 29.9368 34.4555 29.6739 34.5837L28.7752 35.0221C28.5123 35.1503 28.3938 35.203 28.1749 35.2696C27.7606 35.3955 27.3254 35.4258 26.8716 35.3238C26.1283 35.1569 25.6107 34.7419 25.03 34.0506C24.8765 33.8679 24.6667 33.6691 24.4386 33.49C24.2928 33.4967 24.1466 33.5 24 33.5C23.8534 33.5 23.7072 33.4967 23.5614 33.49C23.3333 33.6691 23.1235 33.8679 22.97 34.0506C22.3893 34.7419 21.8717 35.1569 21.1284 35.3238C20.6746 35.4258 20.2394 35.3955 19.8251 35.2696C19.6062 35.203 19.4877 35.1503 19.2248 35.0221L18.326 34.5837C18.247 34.5453 18.198 34.521 18.1407 34.4912C16.8292 33.8082 16.4447 32.6441 16.7858 31.0344C16.8325 30.814 16.8598 30.5446 16.8632 30.2704C16.6645 30.0443 16.4765 29.809 16.3001 29.5652C16.0286 29.5054 15.7558 29.4705 15.5275 29.4663C14.6248 29.45 13.9765 29.3089 13.379 28.8364C13.0142 28.5479 12.7639 28.1906 12.601 27.7894C12.515 27.5773 12.4814 27.4521 12.4156 27.1672L12.1906 26.1928C12.121 25.8911 12.0953 25.7565 12.0821 25.512C12.0573 25.0537 12.145 24.5984 12.3776 24.1664C12.7166 23.537 13.2183 23.1507 13.9797 22.7621C14.1888 22.6554 14.4256 22.499 14.6483 22.3206C14.7001 22.0309 14.7652 21.7444 14.8434 21.4618C14.7194 21.1963 14.5713 20.9439 14.4262 20.7511C13.5517 19.5891 13.2819 18.5167 13.9738 17.3653C14.0805 17.1876 14.1528 17.0924 14.3221 16.8834L14.9514 16.1062C15.058 15.9746 15.107 15.9159 15.1891 15.8274C16.1593 14.781 17.344 14.7464 18.7563 15.4039C18.957 15.4973 19.2084 15.5832 19.4701 15.6479C19.7353 15.5038 20.0074 15.3724 20.2854 15.2542C20.4067 15.0005 20.5037 14.7391 20.5597 14.5149C20.7787 13.6391 21.062 13.0392 21.6569 12.5633C22.02 12.2727 22.4244 12.1092 22.852 12.0407C23.0328 12.0118 23.1518 12.0031 23.342 12.0008L24.5 12C24.7925 12 24.922 12.0046 25.148 12.0407ZM24.5857 14.0002L23.5 14C23 14 22.75 14 22.5 15C22.3612 15.5551 22.0684 16.2642 21.6643 16.8708C21.0217 17.0812 20.4174 17.3761 19.8644 17.7423C19.1476 17.6717 18.4243 17.4555 17.9122 17.217C16.9777 16.782 16.8204 16.9763 16.5057 17.3649L15.8764 18.142C15.5617 18.5306 15.4044 18.7249 16.0242 19.5485C16.3731 20.012 16.7453 20.6984 16.9612 21.4045C16.7402 22.0038 16.5935 22.6392 16.5323 23.2993C16.0307 23.8335 15.4013 24.282 14.8888 24.5436C13.9706 25.0121 14.0269 25.2557 14.1394 25.7429L14.3643 26.7173C14.4768 27.2044 14.533 27.448 15.5636 27.4667C16.1334 27.477 16.8866 27.6018 17.5665 27.8571C17.9118 28.4319 18.332 28.9565 18.8136 29.4177C18.9079 30.1352 18.8601 30.8935 18.7424 31.449C18.5287 32.4574 18.7534 32.567 19.2028 32.7862L20.1016 33.2245C20.551 33.4437 20.7757 33.5533 21.4387 32.7641C21.8105 32.3216 22.3925 31.8067 23.0292 31.4377C23.347 31.4788 23.671 31.5 24 31.5C24.329 31.5 24.653 31.4788 24.9708 31.4377C25.6074 31.8067 26.1894 32.3216 26.5612 32.7641C27.2243 33.5533 27.449 33.4437 27.8984 33.2245L28.7972 32.7862C29.2466 32.567 29.4713 32.4574 29.2576 31.449C29.1399 30.8935 29.0921 30.1352 29.1864 29.4177C29.668 28.9565 30.0881 28.4319 30.4335 27.8571C31.1134 27.6018 31.8665 27.477 32.4364 27.4667C33.467 27.448 33.5232 27.2044 33.6357 26.7173L33.8606 25.7429C33.9731 25.2557 34.0293 25.0121 33.1112 24.5436C32.5986 24.282 31.9693 23.8335 31.4677 23.2993C31.4065 22.6392 31.2598 22.0038 31.0388 21.4045C31.2546 20.6984 31.6269 20.012 31.9758 19.5485C32.5956 18.7249 32.4383 18.5306 32.1236 18.142L31.4943 17.3649C31.1796 16.9763 31.0223 16.782 30.0878 17.217C29.5757 17.4555 28.8524 17.6717 28.1356 17.7423C27.5826 17.3761 26.9783 17.0812 26.3357 16.8708C25.9316 16.2642 25.6388 15.5551 25.5 15C25.2647 14.0588 25.0294 14.0035 24.5857 14.0002ZM24 19.5C26.4853 19.5 28.5 21.5147 28.5 24C28.5 26.4853 26.4853 28.5 24 28.5C21.5147 28.5 19.5 26.4853 19.5 24C19.5 21.5147 21.5147 19.5 24 19.5ZM24 21.5C22.6193 21.5 21.5 22.6193 21.5 24C21.5 25.3807 22.6193 26.5 24 26.5C25.3807 26.5 26.5 25.3807 26.5 24C26.5 22.6193 25.3807 21.5 24 21.5Z" fill="#E4EAF0" fill-opacity="0.78"/>
</svg>
